<?xml version="1.0" encoding="UTF-8"?>
<svg width="254px" height="349px" viewBox="0 0 254 349" version="1.1" xmlns="http://www.w3.org/2000/svg" xmlns:xlink="http://www.w3.org/1999/xlink">
    <title>雪人</title>
    <defs>
        <path d="M147.570106,15.7875992 C156.924438,27.7645858 159.55115,44.0024015 156.075728,59.7295884 C164.631064,63.8472393 172.233403,69.2926909 178.488136,75.9530306 C181.72448,78.2893292 184.723488,81.0115747 187.425502,84.1187629 C207.894385,107.65701 204.107653,144.992433 179.780983,170.667479 C168.233785,186.789415 151.193951,200.679321 130.11855,209.622296 C78.8222215,231.38899 23.0437553,215.607064 5.53385856,174.37238 C-3.81861323,152.347908 -0.361815743,127.516753 12.7054563,105.843689 C12.1458948,104.67844 11.6281359,103.47594 11.1562252,102.238552 C1.29059078,76.3700712 15.1988162,45.0502253 42.2211162,32.2837185 C50.9312134,28.1686907 59.9406659,26.4835715 68.4819317,26.9557429 C71.0460241,23.1223759 74.0439169,19.5037649 77.4610479,16.1976151 C99.6162691,-5.23805108 131.005163,-5.42162146 147.570106,15.7875992 Z" id="path-1"></path>
        <ellipse id="path-3" cx="80.9658059" cy="81" rx="58.7647059" ry="55.5882353"></ellipse>
        <linearGradient x1="50%" y1="0%" x2="50%" y2="100%" id="linearGradient-5">
            <stop stop-color="#4A1010" offset="0%"></stop>
            <stop stop-color="#000000" offset="100%"></stop>
        </linearGradient>
        <path d="M12.8541859,12.7982171 C21.8681242,3.82352672 30.9391816,-1.69576045 33.1149621,0.470541803 C33.1895039,0.544759168 33.2549854,0.627034542 33.3115773,0.717089571 L76.9902216,29.7985482 L76.6323488,30.1000411 C76.7449085,30.1914831 76.848758,30.2914973 76.9436665,30.4002014 C80.5484897,34.5290291 69.8894702,49.6307494 53.1360755,64.1308417 C36.3826808,78.630934 19.8790808,87.0385083 16.2742487,82.9096884 C15.7325331,82.2892279 15.5129328,81.4209704 15.5877237,80.3441954 L1.78682931,33.4406308 C1.22436596,33.429257 0.779768588,33.276606 0.472599576,32.9707751 C-1.70317631,30.8044682 3.84024769,21.7729074 12.8541859,12.7982171 Z" id="path-6"></path>
        <linearGradient x1="50%" y1="0%" x2="50%" y2="100%" id="linearGradient-8">
            <stop stop-color="#F68633" offset="0%"></stop>
            <stop stop-color="#E94E17" offset="100%"></stop>
        </linearGradient>
        <linearGradient x1="50%" y1="100%" x2="50%" y2="32.5231739%" id="linearGradient-9">
            <stop stop-color="#E40000" offset="0%"></stop>
            <stop stop-color="#FF2A2A" offset="100%"></stop>
        </linearGradient>
        <linearGradient x1="50%" y1="100%" x2="50%" y2="32.5231739%" id="linearGradient-10">
            <stop stop-color="#E40000" offset="0%"></stop>
            <stop stop-color="#FF2A2A" offset="100%"></stop>
        </linearGradient>
    </defs>
    <g id="页面-1" stroke="none" stroke-width="1" fill="none" fill-rule="evenodd">
        <g id="说明备份" transform="translate(-951.000000, -4665.000000)">
            <g id="编组-10" transform="translate(225.813821, 3582.000000)">
                <g id="雪人" transform="translate(735.186179, 1097.000000)">
                    <path d="M39.4019649,-4.99727353 C40.7875264,-5.02610111 42.7647607,-4.58132832 45.1469129,-3.66437363 C45.6823894,-3.35721215 46.1583692,-3.01188709 46.5935605,-2.64467291 L46.5935605,-2.64467291 L87.7726011,24.9242338 C101.524363,25.9153964 115.226315,31.1518393 126.261959,41.0605929 C139.305648,52.7724233 146.256422,68.8611215 146.912014,85.5408891 L146.915,85.617 L147.08838,85.6614423 C150.182313,86.4663906 153.959546,88.068243 158.365045,90.7016644 L158.857127,90.9985238 L164.349371,94.3419568 L164.201,95.013 L164.47886,95.1719122 C169.645156,98.1629759 174.348167,102.149164 178.362179,107.139129 L178.789606,107.677609 C188.409921,119.960313 192.177428,136.054866 190.204842,152.285775 C197.099182,156.257011 203.322935,161.067388 208.695424,166.647318 C212.227216,169.266962 215.510429,172.282984 218.486659,175.695814 C230.321269,189.266617 235.29846,206.771639 233.714546,224.655519 C232.183642,241.940865 224.478657,259.582862 210.965742,273.997151 C198.495618,291.148523 180.252451,305.956173 157.696826,315.500222 C129.909861,327.257732 100.916936,328.764009 76.5128363,321.878651 C51.1265086,314.716167 30.7029124,298.540263 20.8745583,275.460649 C11.019317,252.317768 13.5714294,226.341369 26.12512,203.110105 L26.316,202.76 L26.1719217,202.375969 C20.1888657,186.198368 21.971977,168.219931 29.9208787,152.73964 L30.2108707,152.181206 C30.122464,151.489972 30.0860465,150.813907 30.0956067,150.15746 C30.1390368,147.175332 31.0968295,144.485097 32.8268888,142.232859 C33.3254902,141.583767 33.8153541,140.97564 34.2960381,140.40598 L34.313,140.385 L34.183804,140.262141 C20.1006532,126.82001 13.6409347,108.084664 15.0820072,89.3384473 L15.1317994,88.7271606 C14.8093124,87.7502851 14.6176907,86.7132733 14.5567211,85.5987694 L14.5567211,85.5987694 L2.06227622,43.0698429 C-2.13967265,39.578633 -1.59025006,36.0476091 -0.499528667,31.921804 C0.0137458207,29.980272 1.08474074,27.4995339 2.78817505,24.7198564 C5.31451704,20.5973517 9.38689441,15.4878645 14.4712989,10.4175838 C24.5815203,0.335749334 34.9464124,-4.90457265 39.4019649,-4.99727353 Z" id="形状结合备份-2" stroke="#FFFFFF" stroke-width="18" stroke-linecap="round" stroke-linejoin="round"></path>
                    <path d="M39.5475733,2.00121189 C40.9154152,2.02176245 41.7058223,2.38287159 42.2881321,2.8968181 L42.2881321,2.8968181 L85.4649505,31.8032146 C98.3198926,32.343248 111.263698,37.0015055 121.585274,46.2691066 C134.792562,58.1278316 140.929852,75.0335689 139.838626,91.9999256 L139.809,92.418 L139.998171,92.3526001 C140.806012,92.0917688 141.72521,91.971802 142.763275,92.0167837 L143.113709,92.0379198 C146.045257,92.2635446 150.092051,93.8577702 155.217238,96.9777551 C155.632658,97.2306445 156.035921,97.4818436 156.426852,97.7313628 C156.331178,98.1917524 156.232388,98.6533566 156.130483,99.1161752 L156.187,98.853 L156.333614,98.9143243 C162.585068,101.571065 168.240707,105.749528 172.849745,111.454604 L173.278762,111.993927 C182.713537,124.039743 185.633539,140.231273 182.517421,156.092902 C190.695943,160.204292 197.987,165.516598 204.057768,171.926608 C207.368903,174.329121 210.439897,177.11901 213.210954,180.296567 C223.785817,192.422812 228.155293,208.078751 226.74184,224.03797 C225.328179,239.999524 218.119716,256.264535 205.566083,269.518666 C193.780891,285.874853 176.428416,299.973391 154.969054,309.053575 C128.773546,320.137691 101.43538,321.637007 78.4136074,315.141658 C55.1735658,308.584727 36.3330065,293.894958 27.3149179,272.718065 C17.8169743,250.41422 21.0801921,225.292152 34.0905917,203.237798 C33.6790736,202.331792 33.2914992,201.405344 32.9296943,200.459346 C27.0194055,185.005931 29.2665028,167.668598 37.6386688,153.205821 C37.253827,152.181699 37.0813441,151.18777 37.0948645,150.259393 C37.1154389,148.846653 37.5568219,147.566298 38.3781513,146.497069 C40.9840552,143.104633 43.1431518,141.067137 44.7939141,140.03703 L44.817,140.023 L44.3969063,139.718586 C43.2147728,138.84759 42.0595018,137.923055 40.9341176,136.944887 L40.2624977,136.351549 C26.2542179,123.773621 20.1999101,105.518762 22.2869025,87.5380794 C21.7494805,86.6604427 21.5153594,85.6833537 21.5411188,84.5386861 L21.5411188,84.5386861 L8.08575294,38.7389509 C5.66658185,37.1696215 5.76245415,35.6231111 6.26797707,33.7109005 C6.64992734,32.2661205 7.49210836,30.4408455 8.75661245,28.3774178 C11.0569524,24.623705 14.7863933,19.9891194 19.4140829,15.3742849 C27.5865888,7.22472543 35.8474577,2.07819538 39.5475733,2.00121189 Z" id="形状结合" stroke="#FFC983" stroke-width="4" stroke-linecap="round" stroke-linejoin="round"></path>
                    <g id="路径-4" transform="translate(24.000000, 98.000000)">
                        <mask id="mask-2" fill="white">
                            <use xlink:href="#path-1"></use>
                        </mask>
                        <use id="蒙版" fill="#FFFFFF" xlink:href="#path-1"></use>
                        <path d="M199.382197,134.960297 C144.631926,201.338773 91.3126387,217.334493 39.424334,182.947458 C25.2088578,176.351659 26.5204252,136.134215 44.1723655,126.488831 C39.4119762,108.002054 41.7983497,83.7933859 52.8770899,71.6161368 C67.3069774,69.2047275 122.345397,59.4282665 130.106206,3.49194885 C120.486634,8.84825762 109.515248,21.5345753 97.1920505,41.5509018 L19.7135801,54.6003062 L3.84271295,50.5174532 L-18.992126,187.38244 L23.413548,228.1458 L162.35928,219.403141 C179.060859,193.752571 190.298917,174.341928 196.073453,161.171215 C201.847989,148.000501 202.950904,139.263528 199.382197,134.960297 Z" fill="#DDEDF8" opacity="0.503464472" mask="url(#mask-2)"></path>
                    </g>
                    <g id="路径-3" transform="translate(0.000000, 10.000000)">
                        <mask id="mask-4" fill="white">
                            <use xlink:href="#path-3"></use>
                        </mask>
                        <use id="蒙版" fill="#FFFFFF" transform="translate(80.965806, 81.000000) rotate(-48.000000) translate(-80.965806, -81.000000) " xlink:href="#path-3"></use>
                        <path d="M58.4468965,60.6931243 C43.6631557,66.9264872 35.0315548,72.1655779 32.5520938,76.4103965 C29.4226099,81.7680495 33.9662103,100.969329 37.3986632,107.380985 C46.3818756,124.161191 66.8475227,132.732172 90.2116024,128.828892 C77.7846969,136.771793 60.760881,138.215945 39.1401547,133.161346 C20.9878947,125.853452 11.9117647,113.249243 11.9117647,95.34872 C11.9117647,77.4481971 27.4234753,65.8963319 58.4468965,60.6931243 Z" fill="#DDEDF8" opacity="0.498558408" mask="url(#mask-4)"></path>
                    </g>
                    <circle id="椭圆形" fill="url(#linearGradient-5)" cx="60" cy="99" r="12"></circle>
                    <circle id="椭圆形" fill="#FFFFFF" cx="63" cy="90" r="5"></circle>
                    <circle id="椭圆形备份-8" fill="url(#linearGradient-5)" cx="99" cy="69" r="12"></circle>
                    <circle id="椭圆形备份-9" fill="#FFFFFF" cx="102" cy="59" r="5"></circle>
                    <g id="路径-341" transform="translate(8.000000, 4.000000)">
                        <mask id="mask-7" fill="white">
                            <use xlink:href="#path-6"></use>
                        </mask>
                        <use id="蒙版" fill="#348FD3" xlink:href="#path-6"></use>
                        <ellipse id="椭圆形" fill="#3D9DE5" mask="url(#mask-7)" transform="translate(19.500000, 74.886792) rotate(-21.000000) translate(-19.500000, -74.886792) " cx="19.5" cy="74.8867925" rx="2.784164" ry="4.36094038"></ellipse>
                        <polygon fill="#3D9DE5" mask="url(#mask-7)" points="24.5585145 16.7206584 68.818158 50.6057063 77.9101567 36.8932142 31.1615143 6.6657017"></polygon>
                    </g>
                    <ellipse id="椭圆形备份-11" fill="#1D7FC7" transform="translate(24.454641, 20.618454) rotate(-315.000000) translate(-24.454641, -20.618454) " cx="24.4546405" cy="20.6184539" rx="5.55099969" ry="22.9969987"></ellipse>
                    <circle id="椭圆形" fill="url(#linearGradient-5)" cx="126.5" cy="160.5" r="5.5"></circle>
                    <circle id="椭圆形备份-4" fill="url(#linearGradient-5)" cx="137.5" cy="174.5" r="5.5"></circle>
                    <path d="M92.0195932,94.3378968 C93.4034745,93.1114019 100.349459,88.3578741 112.857547,80.0773133 L112.857526,80.0772808 C113.318059,79.7724005 113.938548,79.8985818 114.243429,80.3591144 C114.441868,80.658864 114.464155,81.0420578 114.301803,81.3627913 C107.668007,94.468196 103.754681,101.811824 102.561824,103.393675 C100.624856,105.962293 96.626416,107.38418 92.6511469,104.041442 C88.6758778,100.698703 89.7759648,96.3263614 92.0195932,94.3378968 Z" id="路径-255" fill="url(#linearGradient-8)"></path>
                    <path d="M98,118 C98,122.418278 94.418278,126 90,126 C85.581722,126 82,122.418278 82,118" id="路径" stroke="#2A1917" stroke-width="3" stroke-linecap="round"></path>
                    <path d="M46.9994411,141.01833 C91.6219582,146.137876 121.84112,131.601039 137.656926,97.4078182 C139.054762,92.478657 144.502454,92.8967507 154,98.6620994 C146.808188,131.232405 127.868918,151.617153 97.18219,159.816344 C51.1520978,172.11513 34.8629704,154.016786 39.8695052,147.517558 C43.2071951,143.184739 45.5838404,141.01833 46.9994411,141.01833 Z" id="路径-267" fill="url(#linearGradient-9)" fill-rule="nonzero"></path>
                    <path d="M71.2857143,141.922806 C65,150.42692 63.4285714,167.00757 66.5714286,191.664756 C74.841975,192.111748 81.6514988,192.111748 87,191.664756 C82.1778578,167.090866 82.1778578,150.510216 87,141.922806 C81.9162919,138.025731 76.6781966,138.025731 71.2857143,141.922806 Z" id="路径-268" fill="url(#linearGradient-10)" fill-rule="nonzero"></path>
                    <polygon id="路径-342" fill="#EA0909" points="86.4766536 190 91 200.60271 87.0670554 201.574554 84.5002496 190.342984 81.1074902 190.342984 83.0454209 202.99564 79.8473823 203 78.5517759 190.342984 75.7383268 190.342984 75.7383268 203 72.1551956 202.99564 73.4878441 190.342984 70.6295154 190.342984 67.8859443 203 65 203 66.5340467 190.342984"></polygon>
                    <path d="M43,205.386949 C59.3582171,223.46137 86.3599831,228.372258 124.005298,220.119611 C157.768131,210.052849 175.433032,191.012978 177,163" id="路径-2" stroke="#DDEDF8" stroke-width="2" stroke-linecap="round"></path>
                </g>
            </g>
        </g>
    </g>
</svg>